HIERARCHY
ROOT Hips
{
  OFFSET -35.2597 29.1586 114.425
  CHANNELS 6 Xposition Yposition Zposition Zrotation Xrotation Yrotation
  JOINT LeftUpLeg
  {
    OFFSET 8.64259 1.95398 -2.38835
    CHANNELS 3 Zrotation Xrotation Yrotation
    JOINT LeftLeg
    {
      OFFSET 43.7702 0 0
      CHANNELS 3 Zrotation Xrotation Yrotation
      JOINT LeftFoot
      {
        OFFSET 40.6238 0 0
        CHANNELS 3 Zrotation Xrotation Yrotation
        JOINT LeftToeBase
        {
          OFFSET 12.7242 0 0
          CHANNELS 3 Zrotation Xrotation Yrotation
          End Site
          {
            OFFSET 0 0 0
          }
        }
      }
    }
  }
  JOINT RightUpLeg
  {
    OFFSET -8.2249 1.95398 -2.59336
    CHANNELS 3 Zrotation Xrotation Yrotation
    JOINT RightLeg
    {
      OFFSET 43.5653 0 0
      CHANNELS 3 Zrotation Xrotation Yrotation
      JOINT RightFoot
      {
        OFFSET 40.6238 0 0
        CHANNELS 3 Zrotation Xrotation Yrotation
        JOINT RightToeBase
        {
          OFFSET 12.7242 0 0
          CHANNELS 3 Zrotation Xrotation Yrotation
          End Site
          {
            OFFSET 0 0 0
          }
        }
      }
    }
  }
  JOINT Spine
  {
    OFFSET 0.165834 0.87714 6.61349
    CHANNELS 3 Zrotation Xrotation Yrotation
    JOINT Spine1
    {
      OFFSET 7.38963 1.71661e-005 0
      CHANNELS 3 Zrotation Xrotation Yrotation
      JOINT Spine2
      {
        OFFSET 11.9445 1.14441e-005 0
        CHANNELS 3 Zrotation Xrotation Yrotation
        JOINT Spine3
        {
          OFFSET 14.7254 4.19617e-005 0
          CHANNELS 3 Zrotation Xrotation Yrotation
          JOINT Spine4
          {
            OFFSET 10.9679 0 0
            CHANNELS 3 Zrotation Xrotation Yrotation
            JOINT RightShoulder
            {
              OFFSET 2.46616 -1.6653 3.69651
              CHANNELS 3 Zrotation Xrotation Yrotation
              JOINT RightArm
              {
                OFFSET 13.0012 0 0
                CHANNELS 3 Zrotation Xrotation Yrotation
                JOINT RightForeArm
                {
                  OFFSET 28.7848 1.62311e-005 0
                  CHANNELS 3 Zrotation Xrotation Yrotation
                  JOINT RightHand
                  {
                    OFFSET 26.5688 1.62095e-005 0
                    CHANNELS 3 Zrotation Xrotation Yrotation
                    End Site
                    {
                      OFFSET 0 0 0
                    }
                  }
                }
              }
            }
            JOINT LeftShoulder
            {
              OFFSET 2.38034 -1.29275 -3.7523
              CHANNELS 3 Zrotation Xrotation Yrotation
              JOINT LeftArm
              {
                OFFSET 16.3182 6.07031e-005 0
                CHANNELS 3 Zrotation Xrotation Yrotation
                JOINT LeftForeArm
                {
                  OFFSET 27.0901 0 0
                  CHANNELS 3 Zrotation Xrotation Yrotation
                  JOINT LeftHand
                  {
                    OFFSET 24.5451 1.51738e-005 0
                    CHANNELS 3 Zrotation Xrotation Yrotation
                    End Site
                    {
                      OFFSET 0 0 0
                    }
                  }
                }
              }
            }
            JOINT Neck
            {
              OFFSET 5.0226 -0.0266342 0
              CHANNELS 3 Zrotation Xrotation Yrotation
              JOINT Head
              {
                OFFSET 6.69364 2.86102e-005 0
                CHANNELS 3 Zrotation Xrotation Yrotation
                End Site
                {
                  OFFSET 0 0 0
                }
              }
            }
          }
        }
      }
    }
  }
}
MOTION
Frames:	6
Frame Time:	0.0416667
-242.299 87.4033 -202.439 92.9029 13.4418 92.9371 175.82 15.4818 97.4995 -69.5862 47.7916 15.8414 94.7253 25.9491 -0.357708 22.6354 -3.47844 0.642856 151.435 -17.3999 102.837 -81.217 5.66655 25.6563 67.6381 -7.76486 -3.55532 14.1423 2.05981 9.85273 -4.26306 9.43615 -90.935 7.95518 -8.91845 -1.35239 -3.68522 -8.96928 -0.955408 -26.4277 -8.09726 -3.98664 -6.41509 -8.09726 -3.98663 88.4481 -34.7217 -107.939 18.7922 17.8583 -63.7284 1.63625 62.4904 -8.2668 -17.2368 14.7779 -88.4025 -87.2939 -44.1795 81.7366 -23.2756 2.15464 -112.948 179.657 6.31134 -179.998 28.9678 -17.8376 -62.629 23.1185 -7.20214 -10.8632 0.372175 -3.25216 -0.62481 
-238.373 88.7102 -199.938 92.5788 12.6665 93.4668 175.262 8.77243 99.7532 -60.4904 45.4303 15.6809 97.734 26.526 -2.75935 22.7605 -4.88843 3.22564 143.883 -7.23838 97.0573 -89.7119 0.0137867 16.5171 71.717 -8.15541 -4.83026 21.3154 -2.73513 16.7384 -4.73199 9.40272 -90.9687 8.01834 -9.86966 -1.35889 -3.615 -9.9198 -0.918903 -26.408 -9.00155 -4.28511 -6.39539 -9.00157 -4.28513 89.0826 -33.9229 -107.058 23.0295 12.6412 -65.1912 1.61363 62.5461 -8.2392 -14.0718 12.324 -90.142 -86.8779 -42.7581 82.1402 -22.1431 -3.22173 -110.79 179.461 12.0011 -179.998 28.2425 -17.4844 -62.8249 23.0513 -4.93357 -9.82662 -0.784367 -1.42282 -1.1741 
-234.721 90.3036 -197.435 90.7047 7.04071 95.9817 179.308 3.08861 103.262 -47.6176 41.2714 12.282 96.4734 26.1085 -3.40878 26.69 -2.66986 3.16468 143.53 2.32778 97.6742 -93.7576 -2.22382 9.41502 77.1072 -10.618 -7.11352 39.7819 -7.14098 14.846 -4.47595 9.21442 -91.298 8.37287 -9.50474 -1.98258 -3.26387 -9.58271 -1.55862 -26.0214 -8.46694 -4.7654 -6.00875 -8.46693 -4.7654 90.317 -33.4213 -104.91 27.354 7.28416 -64.4352 1.05576 59.5217 -7.74481 -11.4438 10.3672 -92.733 -87.6947 -43.3553 80.9279 -21.093 -7.63587 -108.323 179.302 17.0636 -179.998 27.6836 -17.1548 -62.8108 22.0509 -2.74866 -8.1634 -0.608392 0.0440131 -0.772759 
-231.493 92.077 -195.035 89.3087 -0.694496 97.9207 -175.252 -1.424 106.443 -37.7619 39.3801 9.14658 87.3667 23.4846 1.65768 35.0538 2.74721 0.572105 146.686 14.6302 98.7261 -93.5862 -2.65252 5.60556 81.8915 -14.3259 -11.1155 34.1273 -5.28985 13.2749 -4.15804 9.07865 -91.5601 8.62192 -8.98719 -2.51033 -3.01936 -9.08889 -2.10934 -25.7362 -7.81584 -5.10827 -5.72358 -7.81586 -5.10827 90.6058 -31.9054 -104.881 32.4893 1.89686 -62.1588 -2.38704 55.4352 -3.77407 -8.85682 8.32758 -95.8033 -87.2106 -44.0893 81.8536 -19.9377 -11.6788 -105.841 179.198 20.5092 -179.998 26.8411 -16.6905 -62.8926 22.5924 -0.067741 -5.28294 -2.98915 1.71955 -1.23036 
-227.986 93.7285 -192.397 90.3774 -9.66771 99.0995 -170.208 -6.72312 107.418 -31.8347 37.0547 6.72767 76.6427 17.3024 4.83376 43.9327 6.07364 3.24161 152.848 23.5003 99.6762 -89.844 -1.85754 3.45133 83.079 -15.4721 -12.6703 19.6912 -0.849807 12.5559 -3.61383 9.12764 -91.5897 8.5273 -7.9137 -2.64623 -3.12142 -8.02243 -2.29342 -25.7855 -6.75204 -4.90983 -5.77289 -6.75204 -4.90983 90.8331 -31.7205 -104.502 35.5636 -2.45727 -34.9647 18.9756 33.3156 -39.2693 -18.1127 15.8103 -89.3186 -87.229 -43.43 81.697 -18.6401 -15.5355 -102.463 179.071 25.2004 -179.998 26.3406 -16.3886 -62.8543 23.6495 1.93031 -4.4907 -6.07719 3.37371 0.574977 
-224.026 94.7785 -189.245 90.825 -19.5519 99.4195 -167.088 -11.4685 106.465 -26.2363 31.6446 4.27198 65.4782 8.88931 4.87387 54.8878 10.5782 5.96487 160.571 32.1526 100.243 -83.6669 3.21444 2.305 83.0801 -13.7021 -8.79119 22.0376 -0.646822 9.90677 -3.01127 9.02169 -91.6027 8.74786 -6.71932 -2.72961 -2.908 -6.83287 -2.43016 -25.5234 -5.58848 -4.62632 -5.51076 -5.58847 -4.62631 90.706 -31.128 -104.954 37.3331 -5.74999 -6.25319 21.1721 15.1849 -62.3505 -23.4377 17.5063 -79.8896 -87.6116 -44.289 81.2475 -17.2947 -18.7803 -98.7928 179.02 27.2529 -179.998 25.8784 -16.0316 -62.5806 23.0666 4.59337 -2.25362 -7.18542 5.13457 0.920883 
